# Blender v2.82 (sub 7) OBJ File: 'LD47Models.blend'
# www.blender.org
mtllib GrassTuft.mtl
o GrassTuft_Cube.025
v -0.095099 -0.034054 -0.045650
v -0.081306 0.127042 -0.025477
v -0.078437 -0.015320 -0.206649
v -0.064644 0.145775 -0.186476
v 0.066398 -0.049746 -0.030762
v 0.080191 0.111350 -0.010589
v 0.083060 -0.031012 -0.191761
v 0.096853 0.130084 -0.171588
v 0.075376 1.610078 0.136024
v 0.087627 1.647125 0.033714
v 0.195570 1.630011 0.040442
v 0.183320 1.592965 0.142752
v 0.218592 2.576411 0.703346
v 0.224184 2.599643 0.667794
v 0.266081 2.590761 0.668580
v 0.260489 2.567530 0.704132
v -0.381423 -0.571011 0.016485
v -0.381423 -0.334807 0.016485
v -0.381423 -0.571011 -0.219718
v -0.381423 -0.334807 -0.219718
v -0.145220 -0.571011 0.016485
v -0.145220 -0.334807 0.016485
v -0.145220 -0.571011 -0.219718
v -0.145220 -0.334807 -0.219718
v -0.341948 1.838965 -0.022592
v -0.343070 1.875203 -0.177129
v -0.184695 1.865129 -0.180641
v -0.183573 1.828891 -0.026104
v -0.195934 3.343355 0.607738
v -0.195851 3.370956 0.552113
v -0.134309 3.363510 0.548509
v -0.134391 3.335908 0.604133
v 0.295177 0.052574 -0.256304
v 0.295177 0.159744 -0.256304
v 0.264556 0.052574 -0.359007
v 0.264556 0.159744 -0.359007
v 0.397879 0.052574 -0.286926
v 0.397879 0.159744 -0.286926
v 0.367258 0.052574 -0.389628
v 0.367258 0.159744 -0.389628
v 0.307275 1.146026 -0.278413
v 0.286753 1.162468 -0.345461
v 0.355160 1.157897 -0.367520
v 0.375682 1.141456 -0.300471
v 0.452478 1.828597 -0.023272
v 0.445303 1.841120 -0.047468
v 0.471595 1.837741 -0.057014
v 0.478770 1.825218 -0.032818
v 0.040626 -0.283216 -0.240119
v 0.040626 -0.127857 -0.240119
v -0.003764 -0.283216 -0.389001
v -0.003764 -0.127857 -0.389001
v 0.189508 -0.283216 -0.284509
v 0.189508 -0.127857 -0.284509
v 0.145118 -0.283216 -0.433392
v 0.145118 -0.127857 -0.433392
v 0.058165 1.301902 -0.272169
v 0.028415 1.325737 -0.369365
v 0.127580 1.319111 -0.401342
v 0.157330 1.295276 -0.304146
v 0.268658 2.291387 0.097695
v 0.258256 2.309542 0.062618
v 0.296370 2.304644 0.048781
v 0.306771 2.286489 0.083857
v -0.444528 0.109304 0.020128
v -0.426625 0.210668 0.049963
v -0.449748 0.140376 -0.082306
v -0.431846 0.241741 -0.052470
v -0.338992 0.093646 0.009999
v -0.321090 0.195010 0.039835
v -0.344213 0.124718 -0.092434
v -0.326311 0.226083 -0.062599
v -0.245096 1.146046 0.305901
v -0.246266 1.182001 0.243509
v -0.176346 1.167641 0.233922
v -0.175176 1.131686 0.296315
v -0.051905 1.699041 0.763018
v -0.051005 1.718198 0.742379
v -0.024152 1.711397 0.737236
v -0.025052 1.692240 0.757876
v -0.417106 -0.286061 0.267323
v -0.440085 -0.132411 0.267010
v -0.473494 -0.294788 0.122822
v -0.496473 -0.141138 0.122509
v -0.274177 -0.264801 0.210264
v -0.297156 -0.111152 0.209951
v -0.330566 -0.273528 0.065763
v -0.353545 -0.119879 0.065450
v -0.637003 1.283728 0.230693
v -0.678100 1.301491 0.136376
v -0.582124 1.309062 0.095982
v -0.541028 1.291300 0.190300
v -0.544527 2.298759 0.579044
v -0.560441 2.314666 0.544958
v -0.523337 2.315228 0.527897
v -0.507423 2.299321 0.561982
vt 0.072146 0.165158
vt 0.072146 0.165158
vt 0.072146 0.165158
vt 0.072146 0.165158
vt 0.072146 0.165158
vt 0.072146 0.165158
vt 0.072146 0.165158
vt 0.072146 0.165158
vt 0.072146 0.165158
vt 0.072146 0.165158
vt 0.072146 0.165158
vt 0.072146 0.165158
vt 0.072146 0.165158
vt 0.072146 0.165158
vt 0.072146 0.165158
vt 0.072146 0.165158
vt 0.072146 0.165158
vt 0.072146 0.165158
vt 0.072146 0.165158
vt 0.072146 0.165158
vt 0.072146 0.165158
vt 0.072146 0.165158
vt 0.072146 0.165158
vt 0.072146 0.165158
vt 0.072146 0.165158
vt 0.072146 0.165158
vt 0.072146 0.165158
vt 0.072146 0.165158
vt 0.072146 0.165158
vt 0.072146 0.165158
vt 0.072146 0.165158
vt 0.072146 0.165158
vt 0.072146 0.165158
vt 0.072146 0.165158
vt 0.072146 0.165158
vt 0.072146 0.165158
vt 0.072146 0.165158
vt 0.072146 0.165158
vt 0.072146 0.165158
vt 0.072146 0.165158
vt 0.072146 0.165158
vt 0.072146 0.165158
vt 0.072146 0.165158
vt 0.072146 0.165158
vt 0.072146 0.165158
vt 0.072146 0.165158
vt 0.072146 0.165158
vt 0.072146 0.165158
vt 0.072146 0.165158
vt 0.072146 0.165158
vt 0.072146 0.165158
vt 0.072146 0.165158
vt 0.072146 0.165158
vt 0.072146 0.165158
vt 0.072146 0.165158
vt 0.072146 0.165158
vt 0.072146 0.165158
vt 0.072146 0.165158
vt 0.072146 0.165158
vt 0.072146 0.165158
vt 0.072146 0.165158
vt 0.072146 0.165158
vt 0.072146 0.165158
vt 0.072146 0.165158
vt 0.072146 0.165158
vt 0.072146 0.165158
vt 0.072146 0.165158
vt 0.072146 0.165158
vt 0.072146 0.165158
vt 0.072146 0.165158
vt 0.072146 0.165158
vt 0.072146 0.165158
vt 0.072146 0.165158
vt 0.072146 0.165158
vt 0.072146 0.165158
vt 0.072146 0.165158
vt 0.072146 0.165158
vt 0.072146 0.165158
vt 0.072146 0.165158
vt 0.072146 0.165158
vt 0.072146 0.165158
vt 0.072146 0.165158
vt 0.072146 0.165158
vt 0.072146 0.165158
vt 0.072146 0.165158
vt 0.072146 0.165158
vt 0.072146 0.165158
vt 0.072146 0.165158
vt 0.072146 0.165158
vt 0.072146 0.165158
vt 0.072146 0.165158
vt 0.072146 0.165158
vt 0.072146 0.165158
vt 0.072146 0.165158
vt 0.072146 0.165158
vt 0.072146 0.165158
vn -0.9911 0.0963 -0.0914
vn 0.1023 0.1150 -0.9881
vn 0.9911 -0.0963 0.0914
vn -0.1023 -0.1150 0.9881
vn -0.0847 -0.9887 -0.1238
vn -0.9899 0.1133 -0.0847
vn -0.1279 -0.4877 0.8636
vn -0.0913 -0.0972 0.9911
vn 0.0955 0.1341 -0.9864
vn 0.9926 -0.0785 0.0924
vn 0.1621 0.8142 0.5575
vn 0.1347 0.5355 -0.8337
vn 0.9897 -0.1216 0.0749
vn -0.9832 0.1751 -0.0507
vn -1.0000 0.0000 0.0000
vn 0.0000 0.0000 -1.0000
vn 1.0000 0.0000 0.0000
vn 0.0000 0.0000 1.0000
vn 0.0000 -1.0000 0.0000
vn -0.9998 0.0177 0.0045
vn -0.0009 -0.3861 0.9225
vn 0.0094 0.0188 0.9998
vn -0.0084 0.0185 -0.9998
vn 0.9998 0.0178 -0.0012
vn 0.1332 0.8877 0.4407
vn 0.0058 0.4376 -0.8992
vn 0.9995 -0.0271 -0.0132
vn -0.9960 0.0836 0.0303
vn -0.9583 0.0000 0.2857
vn -0.2857 0.0000 -0.9583
vn 0.9583 0.0000 -0.2857
vn 0.2857 0.0000 0.9583
vn -0.9569 0.0177 0.2900
vn 0.2627 -0.3861 0.8843
vn 0.2947 0.0188 0.9554
vn -0.2937 0.0185 -0.9557
vn 0.9578 0.0178 -0.2868
vn 0.2536 0.8877 0.3843
vn -0.2514 0.4376 -0.8633
vn 0.9541 -0.0271 -0.2982
vn -0.9458 0.0836 0.3137
vn -0.9847 0.1461 0.0945
vn -0.0487 0.2899 -0.9558
vn 0.9847 -0.1461 -0.0945
vn 0.0487 -0.2899 0.9558
vn -0.1670 -0.9458 -0.2784
vn -0.9814 0.1616 0.1037
vn -0.0205 -0.6325 0.7743
vn 0.0611 -0.2734 0.9599
vn -0.0539 0.3086 -0.9497
vn 0.9875 -0.1289 -0.0907
vn 0.3010 0.6924 0.6558
vn 0.0350 0.6737 -0.7381
vn 0.9791 -0.1679 -0.1146
vn -0.9654 0.2158 0.1464
vn -0.9200 -0.1368 0.3673
vn -0.3630 -0.0562 -0.9301
vn 0.9200 0.1368 -0.3673
vn 0.3630 0.0562 0.9301
vn 0.1479 -0.9890 0.0020
vn -0.9208 -0.1190 0.3714
vn 0.3911 -0.3301 0.8591
vn 0.3687 0.0761 0.9264
vn -0.3734 -0.0390 -0.9269
vn 0.9168 0.1544 -0.3684
vn 0.1512 0.9209 0.3592
vn -0.3858 0.3831 -0.8393
vn 0.9188 0.1092 -0.3793
vn -0.9177 -0.0519 0.3939
usemtl Colors
s off
f 1/1/1 2/2/1 4/3/1 3/4/1
f 3/4/2 4/3/2 8/5/2 7/6/2
f 7/6/3 8/5/3 6/7/3 5/8/3
f 5/8/4 6/7/4 2/2/4 1/1/4
f 3/4/5 7/6/5 5/8/5 1/1/5
f 4/3/6 2/2/6 9/9/6 10/10/6
f 9/9/7 12/11/7 16/12/7 13/13/7
f 2/2/8 6/7/8 12/11/8 9/9/8
f 8/5/9 4/3/9 10/10/9 11/14/9
f 6/7/10 8/5/10 11/14/10 12/11/10
f 15/15/11 14/16/11 13/13/11 16/12/11
f 11/14/12 10/10/12 14/16/12 15/15/12
f 12/11/13 11/14/13 15/15/13 16/12/13
f 10/10/14 9/9/14 13/13/14 14/16/14
f 17/17/15 18/18/15 20/19/15 19/20/15
f 19/20/16 20/19/16 24/21/16 23/22/16
f 23/22/17 24/21/17 22/23/17 21/24/17
f 21/24/18 22/23/18 18/18/18 17/17/18
f 19/20/19 23/22/19 21/24/19 17/17/19
f 20/19/20 18/18/20 25/25/20 26/26/20
f 25/25/21 28/27/21 32/28/21 29/29/21
f 18/18/22 22/23/22 28/27/22 25/25/22
f 24/21/23 20/19/23 26/26/23 27/30/23
f 22/23/24 24/21/24 27/30/24 28/27/24
f 31/31/25 30/32/25 29/29/25 32/28/25
f 27/30/26 26/26/26 30/32/26 31/31/26
f 28/27/27 27/30/27 31/31/27 32/28/27
f 26/26/28 25/25/28 29/29/28 30/32/28
f 33/33/29 34/34/29 36/35/29 35/36/29
f 35/36/30 36/35/30 40/37/30 39/38/30
f 39/38/31 40/37/31 38/39/31 37/40/31
f 37/40/32 38/39/32 34/34/32 33/33/32
f 35/36/19 39/38/19 37/40/19 33/33/19
f 36/35/33 34/34/33 41/41/33 42/42/33
f 41/41/34 44/43/34 48/44/34 45/45/34
f 34/34/35 38/39/35 44/43/35 41/41/35
f 40/37/36 36/35/36 42/42/36 43/46/36
f 38/39/37 40/37/37 43/46/37 44/43/37
f 47/47/38 46/48/38 45/45/38 48/44/38
f 43/46/39 42/42/39 46/48/39 47/47/39
f 44/43/40 43/46/40 47/47/40 48/44/40
f 42/42/41 41/41/41 45/45/41 46/48/41
f 49/49/29 50/50/29 52/51/29 51/52/29
f 51/52/30 52/51/30 56/53/30 55/54/30
f 55/54/31 56/53/31 54/55/31 53/56/31
f 53/56/32 54/55/32 50/50/32 49/49/32
f 51/52/19 55/54/19 53/56/19 49/49/19
f 52/51/33 50/50/33 57/57/33 58/58/33
f 57/57/34 60/59/34 64/60/34 61/61/34
f 50/50/35 54/55/35 60/59/35 57/57/35
f 56/53/36 52/51/36 58/58/36 59/62/36
f 54/55/37 56/53/37 59/62/37 60/59/37
f 63/63/38 62/64/38 61/61/38 64/60/38
f 59/62/39 58/58/39 62/64/39 63/63/39
f 60/59/40 59/62/40 63/63/40 64/60/40
f 58/58/41 57/57/41 61/61/41 62/64/41
f 65/65/42 66/66/42 68/67/42 67/68/42
f 67/68/43 68/67/43 72/69/43 71/70/43
f 71/70/44 72/69/44 70/71/44 69/72/44
f 69/72/45 70/71/45 66/66/45 65/65/45
f 67/68/46 71/70/46 69/72/46 65/65/46
f 68/67/47 66/66/47 73/73/47 74/74/47
f 73/73/48 76/75/48 80/76/48 77/77/48
f 66/66/49 70/71/49 76/75/49 73/73/49
f 72/69/50 68/67/50 74/74/50 75/78/50
f 70/71/51 72/69/51 75/78/51 76/75/51
f 79/79/52 78/80/52 77/77/52 80/76/52
f 75/78/53 74/74/53 78/80/53 79/79/53
f 76/75/54 75/78/54 79/79/54 80/76/54
f 74/74/55 73/73/55 77/77/55 78/80/55
f 81/81/56 82/82/56 84/83/56 83/84/56
f 83/84/57 84/83/57 88/85/57 87/86/57
f 87/86/58 88/85/58 86/87/58 85/88/58
f 85/88/59 86/87/59 82/82/59 81/81/59
f 83/84/60 87/86/60 85/88/60 81/81/60
f 84/83/61 82/82/61 89/89/61 90/90/61
f 89/89/62 92/91/62 96/92/62 93/93/62
f 82/82/63 86/87/63 92/91/63 89/89/63
f 88/85/64 84/83/64 90/90/64 91/94/64
f 86/87/65 88/85/65 91/94/65 92/91/65
f 95/95/66 94/96/66 93/93/66 96/92/66
f 91/94/67 90/90/67 94/96/67 95/95/67
f 92/91/68 91/94/68 95/95/68 96/92/68
f 90/90/69 89/89/69 93/93/69 94/96/69
