# Blender v2.82 (sub 7) OBJ File: 'LD47Models.blend'
# www.blender.org
mtllib IronFence.mtl
o IronFence_Cube.001
v -6.516874 -0.030736 1.000000
v -6.516874 1.969264 1.000000
v -6.516874 -0.030736 -1.000000
v -6.516874 1.969264 -1.000000
v 6.516874 -0.030736 1.000000
v 6.516874 1.969264 1.000000
v 6.516874 -0.030736 -1.000000
v 6.516874 1.969264 -1.000000
v -6.516874 -0.294091 -1.263355
v -6.516874 -0.294091 1.263355
v -6.770832 2.232620 1.019934
v -6.770832 2.232620 -1.019934
v -8.822706 -0.294091 -1.263355
v -8.822706 -0.294091 1.263355
v -8.568748 2.232620 1.019934
v -8.568748 2.232620 -1.019934
v -6.516874 2.232620 1.263355
v -6.516874 2.232620 -1.263355
v -8.822706 2.232620 1.263355
v -8.822706 2.232620 -1.263355
v -6.770832 6.455233 1.019934
v -6.770832 6.455233 -1.019934
v -8.568748 6.455233 1.019934
v -8.568748 6.455233 -1.019934
v -6.639689 6.455233 1.168726
v -6.639689 6.455233 -1.168726
v -8.699892 6.455233 1.168726
v -8.699892 6.455233 -1.168726
v -6.639689 6.833462 1.168726
v -6.639689 6.833462 -1.168726
v -8.699892 6.833462 1.168726
v -8.699892 6.833462 -1.168726
v -5.353529 1.826628 0.187218
v -5.353529 1.826628 -0.246788
v -5.736058 1.826628 0.187218
v -5.736058 1.826628 -0.246788
v -5.353529 6.092191 0.187218
v -5.353529 6.092191 -0.246788
v -5.736058 6.092191 0.187218
v -5.736058 6.092191 -0.246788
v -5.544793 6.827760 -0.029785
v -5.544793 6.827760 -0.029785
v -5.544793 6.827760 -0.029785
v -5.544793 6.827760 -0.029785
v -4.353529 1.826628 0.187218
v -4.353529 1.826628 -0.246788
v -4.736058 1.826628 0.187218
v -4.736058 1.826628 -0.246788
v -4.353529 6.092191 0.187218
v -4.353529 6.092191 -0.246788
v -4.736058 6.092191 0.187218
v -4.736058 6.092191 -0.246788
v -4.544793 6.827760 -0.029785
v -4.544793 6.827760 -0.029785
v -4.544793 6.827760 -0.029785
v -4.544793 6.827760 -0.029785
v -3.353529 1.826628 0.187218
v -3.353529 1.826628 -0.246788
v -3.736058 1.826628 0.187218
v -3.736058 1.826628 -0.246788
v -3.353529 6.092191 0.187218
v -3.353529 6.092191 -0.246788
v -3.736058 6.092191 0.187218
v -3.736058 6.092191 -0.246788
v -3.544793 6.827760 -0.029785
v -3.544793 6.827760 -0.029785
v -3.544793 6.827760 -0.029785
v -3.544793 6.827760 -0.029785
v -2.353529 1.826628 0.187218
v -2.353529 1.826628 -0.246788
v -2.736058 1.826628 0.187218
v -2.736058 1.826628 -0.246788
v -2.353529 6.092191 0.187218
v -2.353529 6.092191 -0.246788
v -2.736058 6.092191 0.187218
v -2.736058 6.092191 -0.246788
v -2.544793 6.827760 -0.029785
v -2.544793 6.827760 -0.029785
v -2.544793 6.827760 -0.029785
v -2.544793 6.827760 -0.029785
v -1.353529 1.826628 0.187218
v -1.353529 1.826628 -0.246788
v -1.736058 1.826628 0.187218
v -1.736058 1.826628 -0.246788
v -1.353529 6.092191 0.187218
v -1.353529 6.092191 -0.246788
v -1.736058 6.092191 0.187218
v -1.736058 6.092191 -0.246788
v -1.544793 6.827760 -0.029785
v -1.544793 6.827760 -0.029785
v -1.544793 6.827760 -0.029785
v -1.544793 6.827760 -0.029785
v -0.353529 1.826628 0.187218
v -0.353529 1.826628 -0.246788
v -0.736058 1.826628 0.187218
v -0.736058 1.826628 -0.246788
v -0.353529 6.092191 0.187218
v -0.353529 6.092191 -0.246788
v -0.736058 6.092191 0.187218
v -0.736058 6.092191 -0.246788
v -0.544793 6.827760 -0.029785
v -0.544793 6.827760 -0.029785
v -0.544793 6.827760 -0.029785
v -0.544793 6.827760 -0.029785
v 0.646471 1.826628 0.187218
v 0.646471 1.826628 -0.246788
v 0.263942 1.826628 0.187218
v 0.263942 1.826628 -0.246788
v 0.646471 6.092191 0.187218
v 0.646471 6.092191 -0.246788
v 0.263942 6.092191 0.187218
v 0.263942 6.092191 -0.246788
v 0.455207 6.827760 -0.029785
v 0.455207 6.827760 -0.029785
v 0.455207 6.827760 -0.029785
v 0.455207 6.827760 -0.029785
v 1.646471 1.826628 0.187218
v 1.646471 1.826628 -0.246788
v 1.263942 1.826628 0.187218
v 1.263942 1.826628 -0.246788
v 1.646471 6.092191 0.187218
v 1.646471 6.092191 -0.246788
v 1.263942 6.092191 0.187218
v 1.263942 6.092191 -0.246788
v 1.455207 6.827760 -0.029785
v 1.455207 6.827760 -0.029785
v 1.455207 6.827760 -0.029785
v 1.455207 6.827760 -0.029785
v 2.646471 1.826628 0.187218
v 2.646471 1.826628 -0.246788
v 2.263942 1.826628 0.187218
v 2.263942 1.826628 -0.246788
v 2.646471 6.092191 0.187218
v 2.646471 6.092191 -0.246788
v 2.263942 6.092191 0.187218
v 2.263942 6.092191 -0.246788
v 2.455207 6.827760 -0.029785
v 2.455207 6.827760 -0.029785
v 2.455207 6.827760 -0.029785
v 2.455207 6.827760 -0.029785
v 3.646471 1.826628 0.187218
v 3.646471 1.826628 -0.246788
v 3.263942 1.826628 0.187218
v 3.263942 1.826628 -0.246788
v 3.646471 6.092191 0.187218
v 3.646471 6.092191 -0.246788
v 3.263942 6.092191 0.187218
v 3.263942 6.092191 -0.246788
v 3.455207 6.827760 -0.029785
v 3.455207 6.827760 -0.029785
v 3.455207 6.827760 -0.029785
v 3.455207 6.827760 -0.029785
v 4.646471 1.826628 0.187218
v 4.646471 1.826628 -0.246788
v 4.263942 1.826628 0.187218
v 4.263942 1.826628 -0.246788
v 4.646471 6.092191 0.187218
v 4.646471 6.092191 -0.246788
v 4.263942 6.092191 0.187218
v 4.263942 6.092191 -0.246788
v 4.455207 6.827760 -0.029785
v 4.455207 6.827760 -0.029785
v 4.455207 6.827760 -0.029785
v 4.455207 6.827760 -0.029785
v 5.646471 1.826628 0.187218
v 5.646471 1.826628 -0.246788
v 5.263942 1.826628 0.187218
v 5.263942 1.826628 -0.246788
v 5.646471 6.092191 0.187218
v 5.646471 6.092191 -0.246788
v 5.263942 6.092191 0.187218
v 5.263942 6.092191 -0.246788
v 5.455207 6.827760 -0.029785
v 5.455207 6.827760 -0.029785
v 5.455207 6.827760 -0.029785
v 5.455207 6.827760 -0.029785
v -6.616874 5.249762 0.279632
v -6.616874 5.249762 -0.339201
v -6.616874 5.632290 0.279632
v -6.616874 5.632290 -0.339201
v 6.667634 5.249762 0.279632
v 6.667634 5.249762 -0.339201
v 6.667634 5.632290 0.279632
v 6.667634 5.632290 -0.339201
v 6.455207 6.827760 -0.029785
v 6.455207 6.827760 -0.029785
v 6.455207 6.827760 -0.029785
v 6.455207 6.827760 -0.029785
vt 0.308594 0.796875
vt 0.308594 0.796875
vt 0.308594 0.796875
vt 0.308594 0.796875
vt 0.308594 0.796875
vt 0.308594 0.796875
vt 0.308594 0.796875
vt 0.308594 0.796875
vt 0.308594 0.796875
vt 0.308594 0.796875
vt 0.308594 0.796875
vt 0.308594 0.796875
vt 0.308594 0.796875
vt 0.308594 0.796875
vt 0.308594 0.796875
vt 0.308594 0.796875
vt 0.308594 0.796875
vt 0.308594 0.796875
vt 0.308594 0.796875
vt 0.308594 0.796875
vt 0.308594 0.796875
vt 0.308594 0.796875
vt 0.308594 0.796875
vt 0.308594 0.796875
vt 0.308594 0.796875
vt 0.308594 0.796875
vt 0.308594 0.796875
vt 0.308594 0.796875
vt 0.308594 0.796875
vt 0.308594 0.796875
vt 0.308594 0.796875
vt 0.308594 0.796875
vt 0.097656 0.910156
vt 0.097656 0.910156
vt 0.097656 0.910156
vt 0.097656 0.910156
vt 0.097656 0.910156
vt 0.097656 0.910156
vt 0.097656 0.910156
vt 0.097656 0.910156
vt 0.097656 0.910156
vt 0.097656 0.910156
vt 0.097656 0.910156
vt 0.097656 0.910156
vt 0.097656 0.910156
vt 0.097656 0.910156
vt 0.097656 0.910156
vt 0.097656 0.910156
vt 0.097656 0.910156
vt 0.097656 0.910156
vt 0.097656 0.910156
vt 0.097656 0.910156
vt 0.097656 0.910156
vt 0.097656 0.910156
vt 0.097656 0.910156
vt 0.097656 0.910156
vt 0.097656 0.910156
vt 0.097656 0.910156
vt 0.097656 0.910156
vt 0.097656 0.910156
vt 0.097656 0.910156
vt 0.097656 0.910156
vt 0.097656 0.910156
vt 0.097656 0.910156
vt 0.097656 0.910156
vt 0.097656 0.910156
vt 0.097656 0.910156
vt 0.097656 0.910156
vt 0.097656 0.910156
vt 0.097656 0.910156
vt 0.097656 0.910156
vt 0.097656 0.910156
vt 0.097656 0.910156
vt 0.097656 0.910156
vt 0.097656 0.910156
vt 0.097656 0.910156
vt 0.097656 0.910156
vt 0.097656 0.910156
vt 0.097656 0.910156
vt 0.097656 0.910156
vt 0.097656 0.910156
vt 0.097656 0.910156
vt 0.097656 0.910156
vt 0.097656 0.910156
vt 0.097656 0.910156
vt 0.097656 0.910156
vt 0.097656 0.910156
vt 0.097656 0.910156
vt 0.097656 0.910156
vt 0.097656 0.910156
vt 0.097656 0.910156
vt 0.097656 0.910156
vt 0.097656 0.910156
vt 0.097656 0.910156
vt 0.097656 0.910156
vt 0.097656 0.910156
vt 0.097656 0.910156
vt 0.097656 0.910156
vt 0.097656 0.910156
vt 0.097656 0.910156
vt 0.097656 0.910156
vt 0.097656 0.910156
vt 0.097656 0.910156
vt 0.097656 0.910156
vt 0.097656 0.910156
vt 0.097656 0.910156
vt 0.097656 0.910156
vt 0.097656 0.910156
vt 0.097656 0.910156
vt 0.097656 0.910156
vt 0.097656 0.910156
vt 0.097656 0.910156
vt 0.097656 0.910156
vt 0.097656 0.910156
vt 0.097656 0.910156
vt 0.097656 0.910156
vt 0.097656 0.910156
vt 0.097656 0.910156
vt 0.097656 0.910156
vt 0.097656 0.910156
vt 0.097656 0.910156
vt 0.097656 0.910156
vt 0.097656 0.910156
vt 0.097656 0.910156
vt 0.097656 0.910156
vt 0.097656 0.910156
vt 0.097656 0.910156
vt 0.097656 0.910156
vt 0.097656 0.910156
vt 0.097656 0.910156
vt 0.097656 0.910156
vt 0.097656 0.910156
vt 0.097656 0.910156
vt 0.097656 0.910156
vt 0.097656 0.910156
vt 0.097656 0.910156
vt 0.097656 0.910156
vt 0.097656 0.910156
vt 0.097656 0.910156
vt 0.097656 0.910156
vt 0.097656 0.910156
vt 0.097656 0.910156
vt 0.097656 0.910156
vt 0.097656 0.910156
vt 0.097656 0.910156
vt 0.097656 0.910156
vt 0.097656 0.910156
vt 0.097656 0.910156
vt 0.097656 0.910156
vt 0.097656 0.910156
vt 0.097656 0.910156
vt 0.097656 0.910156
vt 0.097656 0.910156
vt 0.097656 0.910156
vt 0.097656 0.910156
vt 0.097656 0.910156
vt 0.097656 0.910156
vt 0.097656 0.910156
vt 0.097656 0.910156
vt 0.097656 0.910156
vt 0.097656 0.910156
vt 0.097656 0.910156
vt 0.097656 0.910156
vt 0.097656 0.910156
vt 0.097656 0.910156
vt 0.097656 0.910156
vt 0.097656 0.910156
vt 0.097656 0.910156
vt 0.097656 0.910156
vt 0.097656 0.910156
vt 0.097656 0.910156
vt 0.097656 0.910156
vt 0.097656 0.910156
vt 0.097656 0.910156
vt 0.097656 0.910156
vt 0.097656 0.910156
vt 0.097656 0.910156
vt 0.097656 0.910156
vt 0.097656 0.910156
vt 0.097656 0.910156
vt 0.097656 0.910156
vt 0.097656 0.910156
vt 0.097656 0.910156
vt 0.097656 0.910156
vt 0.097656 0.910156
vt 0.097656 0.910156
vt 0.097656 0.910156
vt 0.097656 0.910156
vn 1.0000 0.0000 0.0000
vn 0.0000 0.0000 -1.0000
vn 0.0000 0.0000 1.0000
vn 0.0000 -1.0000 0.0000
vn 0.0000 1.0000 0.0000
vn -1.0000 0.0000 0.0000
vn 0.0000 0.2830 -0.9591
vn 0.9678 0.2517 0.0000
vn 0.0000 0.2830 0.9591
vn -0.9678 0.2517 0.0000
usemtl Colors
s off
f 2/1/1 4/2/1 18/3/1 17/4/1
f 3/5/2 4/2/2 8/6/2 7/7/2
f 7/7/1 8/6/1 6/8/1 5/9/1
f 5/9/3 6/8/3 2/1/3 1/10/3
f 3/5/4 7/7/4 5/9/4 1/10/4
f 8/6/5 4/2/5 2/1/5 6/8/5
f 18/3/2 9/11/2 13/12/2 20/13/2
f 3/5/1 1/10/1 10/14/1 9/11/1
f 4/2/1 3/5/1 9/11/1 18/3/1
f 1/10/1 2/1/1 17/4/1 10/14/1
f 14/15/6 19/16/6 20/13/6 13/12/6
f 10/14/3 17/4/3 19/16/3 14/15/3
f 15/17/3 11/18/3 21/19/3 23/20/3
f 9/11/4 10/14/4 14/15/4 13/12/4
f 12/21/5 11/18/5 17/4/5 18/3/5
f 15/17/5 16/22/5 20/13/5 19/16/5
f 16/22/5 12/21/5 18/3/5 20/13/5
f 11/18/5 15/17/5 19/16/5 17/4/5
f 24/23/4 23/20/4 27/24/4 28/25/4
f 16/22/6 15/17/6 23/20/6 24/23/6
f 12/21/2 16/22/2 24/23/2 22/26/2
f 11/18/1 12/21/1 22/26/1 21/19/1
f 26/27/2 28/25/2 32/28/2 30/29/2
f 22/26/4 24/23/4 28/25/4 26/27/4
f 21/19/4 22/26/4 26/27/4 25/30/4
f 23/20/4 21/19/4 25/30/4 27/24/4
f 29/31/5 30/29/5 32/28/5 31/32/5
f 25/30/1 26/27/1 30/29/1 29/31/1
f 27/24/3 25/30/3 29/31/3 31/32/3
f 28/25/6 27/24/6 31/32/6 32/28/6
f 33/33/4 35/34/4 36/35/4 34/36/4
f 38/37/7 40/38/7 44/39/7 42/40/7
f 34/36/2 36/35/2 40/38/2 38/37/2
f 33/33/1 34/36/1 38/37/1 37/41/1
f 35/34/3 33/33/3 37/41/3 39/42/3
f 36/35/6 35/34/6 39/42/6 40/38/6
f 41/43/3 42/40/3 44/39/3 43/44/3
f 37/41/8 38/37/8 42/40/8 41/43/8
f 39/42/9 37/41/9 41/43/9 43/44/9
f 40/38/10 39/42/10 43/44/10 44/39/10
f 45/45/4 47/46/4 48/47/4 46/48/4
f 50/49/7 52/50/7 56/51/7 54/52/7
f 46/48/2 48/47/2 52/50/2 50/49/2
f 45/45/1 46/48/1 50/49/1 49/53/1
f 47/46/3 45/45/3 49/53/3 51/54/3
f 48/47/6 47/46/6 51/54/6 52/50/6
f 53/55/3 54/52/3 56/51/3 55/56/3
f 49/53/8 50/49/8 54/52/8 53/55/8
f 51/54/9 49/53/9 53/55/9 55/56/9
f 52/50/10 51/54/10 55/56/10 56/51/10
f 57/57/4 59/58/4 60/59/4 58/60/4
f 62/61/7 64/62/7 68/63/7 66/64/7
f 58/60/2 60/59/2 64/62/2 62/61/2
f 57/57/1 58/60/1 62/61/1 61/65/1
f 59/58/3 57/57/3 61/65/3 63/66/3
f 60/59/6 59/58/6 63/66/6 64/62/6
f 65/67/3 66/64/3 68/63/3 67/68/3
f 61/65/8 62/61/8 66/64/8 65/67/8
f 63/66/9 61/65/9 65/67/9 67/68/9
f 64/62/10 63/66/10 67/68/10 68/63/10
f 69/69/4 71/70/4 72/71/4 70/72/4
f 74/73/7 76/74/7 80/75/7 78/76/7
f 70/72/2 72/71/2 76/74/2 74/73/2
f 69/69/1 70/72/1 74/73/1 73/77/1
f 71/70/3 69/69/3 73/77/3 75/78/3
f 72/71/6 71/70/6 75/78/6 76/74/6
f 77/79/3 78/76/3 80/75/3 79/80/3
f 73/77/8 74/73/8 78/76/8 77/79/8
f 75/78/9 73/77/9 77/79/9 79/80/9
f 76/74/10 75/78/10 79/80/10 80/75/10
f 81/81/4 83/82/4 84/83/4 82/84/4
f 86/85/7 88/86/7 92/87/7 90/88/7
f 82/84/2 84/83/2 88/86/2 86/85/2
f 81/81/1 82/84/1 86/85/1 85/89/1
f 83/82/3 81/81/3 85/89/3 87/90/3
f 84/83/6 83/82/6 87/90/6 88/86/6
f 89/91/3 90/88/3 92/87/3 91/92/3
f 85/89/8 86/85/8 90/88/8 89/91/8
f 87/90/9 85/89/9 89/91/9 91/92/9
f 88/86/10 87/90/10 91/92/10 92/87/10
f 93/93/4 95/94/4 96/95/4 94/96/4
f 98/97/7 100/98/7 104/99/7 102/100/7
f 94/96/2 96/95/2 100/98/2 98/97/2
f 93/93/1 94/96/1 98/97/1 97/101/1
f 95/94/3 93/93/3 97/101/3 99/102/3
f 96/95/6 95/94/6 99/102/6 100/98/6
f 101/103/3 102/100/3 104/99/3 103/104/3
f 97/101/8 98/97/8 102/100/8 101/103/8
f 99/102/9 97/101/9 101/103/9 103/104/9
f 100/98/10 99/102/10 103/104/10 104/99/10
f 105/105/4 107/106/4 108/107/4 106/108/4
f 110/109/7 112/110/7 116/111/7 114/112/7
f 106/108/2 108/107/2 112/110/2 110/109/2
f 105/105/1 106/108/1 110/109/1 109/113/1
f 107/106/3 105/105/3 109/113/3 111/114/3
f 108/107/6 107/106/6 111/114/6 112/110/6
f 113/115/3 114/112/3 116/111/3 115/116/3
f 109/113/8 110/109/8 114/112/8 113/115/8
f 111/114/9 109/113/9 113/115/9 115/116/9
f 112/110/10 111/114/10 115/116/10 116/111/10
f 117/117/4 119/118/4 120/119/4 118/120/4
f 122/121/7 124/122/7 128/123/7 126/124/7
f 118/120/2 120/119/2 124/122/2 122/121/2
f 117/117/1 118/120/1 122/121/1 121/125/1
f 119/118/3 117/117/3 121/125/3 123/126/3
f 120/119/6 119/118/6 123/126/6 124/122/6
f 125/127/3 126/124/3 128/123/3 127/128/3
f 121/125/8 122/121/8 126/124/8 125/127/8
f 123/126/9 121/125/9 125/127/9 127/128/9
f 124/122/10 123/126/10 127/128/10 128/123/10
f 129/129/4 131/130/4 132/131/4 130/132/4
f 134/133/7 136/134/7 140/135/7 138/136/7
f 130/132/2 132/131/2 136/134/2 134/133/2
f 129/129/1 130/132/1 134/133/1 133/137/1
f 131/130/3 129/129/3 133/137/3 135/138/3
f 132/131/6 131/130/6 135/138/6 136/134/6
f 137/139/3 138/136/3 140/135/3 139/140/3
f 133/137/8 134/133/8 138/136/8 137/139/8
f 135/138/9 133/137/9 137/139/9 139/140/9
f 136/134/10 135/138/10 139/140/10 140/135/10
f 141/141/4 143/142/4 144/143/4 142/144/4
f 146/145/7 148/146/7 152/147/7 150/148/7
f 142/144/2 144/143/2 148/146/2 146/145/2
f 141/141/1 142/144/1 146/145/1 145/149/1
f 143/142/3 141/141/3 145/149/3 147/150/3
f 144/143/6 143/142/6 147/150/6 148/146/6
f 149/151/3 150/148/3 152/147/3 151/152/3
f 145/149/8 146/145/8 150/148/8 149/151/8
f 147/150/9 145/149/9 149/151/9 151/152/9
f 148/146/10 147/150/10 151/152/10 152/147/10
f 153/153/4 155/154/4 156/155/4 154/156/4
f 158/157/7 160/158/7 164/159/7 162/160/7
f 154/156/2 156/155/2 160/158/2 158/157/2
f 153/153/1 154/156/1 158/157/1 157/161/1
f 155/154/3 153/153/3 157/161/3 159/162/3
f 156/155/6 155/154/6 159/162/6 160/158/6
f 161/163/3 162/160/3 164/159/3 163/164/3
f 157/161/8 158/157/8 162/160/8 161/163/8
f 159/162/9 157/161/9 161/163/9 163/164/9
f 160/158/10 159/162/10 163/164/10 164/159/10
f 165/165/4 167/166/4 168/167/4 166/168/4
f 170/169/7 172/170/7 176/171/7 174/172/7
f 166/168/2 168/167/2 172/170/2 170/169/2
f 165/165/1 166/168/1 170/169/1 169/173/1
f 167/166/3 165/165/3 169/173/3 171/174/3
f 168/167/6 167/166/6 171/174/6 172/170/6
f 173/175/3 174/172/3 176/171/3 175/176/3
f 169/173/8 170/169/8 174/172/8 173/175/8
f 171/174/9 169/173/9 173/175/9 175/176/9
f 172/170/10 171/174/10 175/176/10 176/171/10
f 177/177/6 179/178/6 180/179/6 178/180/6
f 178/180/2 180/179/2 184/181/2 182/182/2
f 177/177/4 178/180/4 182/182/4 181/183/4
f 179/178/3 177/177/3 181/183/3 183/184/3
f 180/179/5 179/178/5 183/184/5 184/181/5
f 185/185/3 186/186/3 188/187/3 187/188/3
f 182/182/1 184/181/1 183/184/1 181/183/1
