# Blender v2.82 (sub 7) OBJ File: 'LD47Models.blend'
# www.blender.org
mtllib Pillar.mtl
o Pillar_Cube.003
v 1.380500 0.131987 -1.263355
v 1.380500 0.131987 1.263355
v 1.126542 2.658697 1.019934
v 1.126542 2.658697 -1.019934
v -0.925333 0.131987 -1.263355
v -0.925333 0.131987 1.263355
v -0.671374 2.658697 1.019934
v -0.671374 2.658697 -1.019934
v 1.380500 2.658697 1.263355
v 1.380500 2.658697 -1.263355
v -0.925333 2.658697 1.263355
v -0.925333 2.658697 -1.263355
v 1.126542 6.881310 1.019934
v 1.126542 6.881310 -1.019934
v -0.671374 6.881310 1.019934
v -0.671374 6.881310 -1.019934
v 1.257685 6.881310 1.168726
v 1.257685 6.881310 -1.168726
v -0.802518 6.881310 1.168726
v -0.802518 6.881310 -1.168726
v 1.257685 7.259540 1.168726
v 1.257685 7.259540 -1.168726
v -0.802518 7.259540 1.168726
v -0.802518 7.259540 -1.168726
vt 0.308059 0.795294
vt 0.308059 0.795294
vt 0.308059 0.795294
vt 0.308059 0.795294
vt 0.308059 0.795294
vt 0.308059 0.795294
vt 0.308059 0.795294
vt 0.308059 0.795294
vt 0.308059 0.795294
vt 0.308059 0.795294
vt 0.308059 0.795294
vt 0.308059 0.795294
vt 0.308059 0.795294
vt 0.308059 0.795294
vt 0.308059 0.795294
vt 0.308059 0.795294
vt 0.308059 0.795294
vt 0.308059 0.795294
vt 0.308059 0.795294
vt 0.308059 0.795294
vt 0.308059 0.795294
vt 0.308059 0.795294
vt 0.308059 0.795294
vt 0.308059 0.795294
vn 1.0000 0.0000 0.0000
vn 0.0000 0.0000 -1.0000
vn -1.0000 0.0000 0.0000
vn 0.0000 0.0000 1.0000
vn 0.0000 -1.0000 0.0000
vn 0.0000 1.0000 0.0000
usemtl Colors
s off
f 1/1/1 10/2/1 9/3/1 2/4/1
f 10/2/2 1/1/2 5/5/2 12/6/2
f 6/7/3 11/8/3 12/6/3 5/5/3
f 2/4/4 9/3/4 11/8/4 6/7/4
f 7/9/4 3/10/4 13/11/4 15/12/4
f 1/1/5 2/4/5 6/7/5 5/5/5
f 4/13/6 3/10/6 9/3/6 10/2/6
f 7/9/6 8/14/6 12/6/6 11/8/6
f 8/14/6 4/13/6 10/2/6 12/6/6
f 3/10/6 7/9/6 11/8/6 9/3/6
f 16/15/5 15/12/5 19/16/5 20/17/5
f 8/14/3 7/9/3 15/12/3 16/15/3
f 4/13/2 8/14/2 16/15/2 14/18/2
f 3/10/1 4/13/1 14/18/1 13/11/1
f 18/19/2 20/17/2 24/20/2 22/21/2
f 14/18/5 16/15/5 20/17/5 18/19/5
f 13/11/5 14/18/5 18/19/5 17/22/5
f 15/12/5 13/11/5 17/22/5 19/16/5
f 21/23/6 22/21/6 24/20/6 23/24/6
f 17/22/1 18/19/1 22/21/1 21/23/1
f 19/16/4 17/22/4 21/23/4 23/24/4
f 20/17/3 19/16/3 23/24/3 24/20/3
