# Blender v2.82 (sub 7) OBJ File: 'LD47Models.blend'
# www.blender.org
mtllib Staff.mtl
o Staff_Cube.036
v -0.854553 0.190468 -1.035397
v -0.854553 1.826724 -1.035397
v -0.758342 1.826724 -0.939186
v -0.758342 0.190468 -1.035397
v -0.854553 1.922846 -1.035397
v -0.899324 1.798785 -0.911221
v -0.899324 1.798785 -1.063362
v -0.899324 1.950785 -0.911221
v -0.899324 1.950785 -1.063362
v -0.870577 0.114033 -0.987291
v -0.870577 1.798832 -0.987291
v -0.758342 0.114033 -0.987291
v -0.758342 1.849294 -0.987291
v -0.758342 1.951232 -0.987291
v -0.899324 1.769202 -0.987291
v -0.899324 1.980862 -0.987291
v -1.060415 1.773968 -0.987291
v -1.051631 1.802217 -1.063362
v -0.997573 1.976084 -0.987291
v -1.006503 1.947364 -1.063362
v -1.051631 1.802217 -0.911221
v -1.006503 1.947364 -0.911221
v -1.133531 1.825047 -0.987291
v -1.126997 1.846063 -1.043883
v -1.086781 1.975409 -0.987291
v -1.093424 1.954043 -1.043883
v -1.126997 1.846063 -0.930700
v -1.093424 1.954043 -0.930700
v -1.224539 1.939975 -0.987291
v -1.214555 1.951342 -1.026194
v -1.153103 2.021299 -0.987291
v -1.163254 2.009743 -1.026194
v -1.214555 1.951342 -0.948389
v -1.163254 2.009743 -0.948389
v -1.197473 2.141550 -0.987291
v -1.192925 2.140769 -0.999156
v -1.164936 2.135962 -0.987291
v -1.169560 2.136756 -0.999156
v -1.192925 2.140769 -0.975427
v -1.169560 2.136756 -0.975427
v -0.758342 0.190468 -0.939186
v -0.758342 1.826724 -1.035397
v -0.854553 0.190468 -0.939186
v -0.854553 1.826724 -0.939186
v -0.758342 1.922846 -0.939186
v -0.758342 1.922846 -1.035397
v -0.854553 1.922846 -0.939186
v -0.713570 1.798785 -0.911221
v -0.713570 1.798785 -1.063362
v -0.713570 1.950785 -0.911221
v -0.713570 1.950785 -1.063362
v -0.742317 0.114033 -0.987291
v -0.742317 1.798832 -0.987291
v -0.854553 0.114033 -0.987291
v -0.854553 1.849294 -0.987291
v -0.854553 1.951232 -0.987291
v -0.713570 1.769202 -0.987291
v -0.713570 1.980862 -0.987291
v -0.552480 1.773968 -0.987291
v -0.561263 1.802217 -1.063362
v -0.615322 1.976084 -0.987291
v -0.606392 1.947364 -1.063362
v -0.561263 1.802217 -0.911221
v -0.606392 1.947364 -0.911221
v -0.479364 1.825047 -0.987291
v -0.485898 1.846063 -1.043883
v -0.526114 1.975409 -0.987291
v -0.519471 1.954043 -1.043883
v -0.485898 1.846063 -0.930700
v -0.519471 1.954043 -0.930700
v -0.388355 1.939975 -0.987291
v -0.398340 1.951342 -1.026194
v -0.459791 2.021299 -0.987291
v -0.449640 2.009743 -1.026194
v -0.398340 1.951342 -0.948389
v -0.449640 2.009743 -0.948389
v -0.415422 2.141550 -0.987291
v -0.419970 2.140769 -0.999156
v -0.447959 2.135962 -0.987291
v -0.443335 2.136756 -0.999156
v -0.419970 2.140769 -0.975427
v -0.443335 2.136756 -0.975427
v -0.811639 2.069802 -0.983182
v -0.739278 2.125080 -0.930610
v -0.839278 2.125080 -0.898117
v -0.901082 2.125080 -0.983182
v -0.839278 2.125080 -1.068247
v -0.739278 2.125080 -1.035755
v -0.784000 2.214524 -0.898117
v -0.884000 2.214524 -0.930610
v -0.884000 2.214524 -1.035755
v -0.784000 2.214524 -1.068247
v -0.722196 2.214523 -0.983182
v -0.811639 2.269801 -0.983182
v -0.827884 2.084736 -0.933183
v -0.769107 2.084736 -0.952281
v -0.785352 2.117228 -0.902281
v -0.726574 2.117228 -0.983182
v -0.769107 2.084736 -1.014083
v -0.864212 2.084737 -0.983182
v -0.880458 2.117228 -0.933182
v -0.827884 2.084736 -1.033182
v -0.880458 2.117228 -1.033182
v -0.785352 2.117228 -1.064083
v -0.716533 2.169801 -0.952281
v -0.716533 2.169801 -1.014083
v -0.811639 2.169801 -0.883182
v -0.752860 2.169801 -0.902281
v -0.906745 2.169801 -0.952281
v -0.870417 2.169801 -0.902281
v -0.870417 2.169801 -1.064084
v -0.906745 2.169801 -1.014083
v -0.752860 2.169801 -1.064084
v -0.811639 2.169801 -1.083182
v -0.742820 2.222375 -0.933182
v -0.837926 2.222375 -0.902281
v -0.896704 2.222375 -0.983182
v -0.837926 2.222375 -1.064083
v -0.742820 2.222375 -1.033182
v -0.795393 2.254867 -0.933183
v -0.759066 2.254867 -0.983182
v -0.854171 2.254867 -0.952281
v -0.854171 2.254867 -1.014083
v -0.795393 2.254867 -1.033182
vt 0.568209 0.655020
vt 0.568209 0.655020
vt 0.568209 0.655020
vt 0.568209 0.655020
vt 0.568209 0.655020
vt 0.568209 0.655020
vt 0.568209 0.655020
vt 0.568209 0.655020
vt 0.568209 0.655020
vt 0.568209 0.655020
vt 0.568209 0.655020
vt 0.568209 0.655020
vt 0.568209 0.655020
vt 0.568209 0.655020
vt 0.568209 0.655020
vt 0.568209 0.655020
vt 0.568209 0.655020
vt 0.568209 0.655020
vt 0.568209 0.655020
vt 0.568209 0.655020
vt 0.413189 0.816240
vt 0.413189 0.816240
vt 0.413189 0.816240
vt 0.413189 0.816240
vt 0.568209 0.655020
vt 0.568209 0.655020
vt 0.568209 0.655020
vt 0.568209 0.655020
vt 0.413189 0.816240
vt 0.413189 0.816240
vt 0.413189 0.816240
vt 0.413189 0.816240
vt 0.413189 0.816240
vt 0.413189 0.816240
vt 0.413189 0.816240
vt 0.413189 0.816240
vt 0.413189 0.816240
vt 0.413189 0.816240
vt 0.413189 0.816240
vt 0.413189 0.816240
vt 0.413189 0.816240
vt 0.413189 0.816240
vt 0.413189 0.816240
vt 0.413189 0.816240
vt 0.413189 0.816240
vt 0.413189 0.816240
vt 0.413189 0.816240
vt 0.413189 0.816240
vt 0.413189 0.816240
vt 0.413189 0.816240
vt 0.413189 0.816240
vt 0.413189 0.816240
vt 0.413189 0.816240
vt 0.413189 0.816240
vt 0.568209 0.655020
vt 0.568209 0.655020
vt 0.568209 0.655020
vt 0.568209 0.655020
vt 0.568209 0.655020
vt 0.568209 0.655020
vt 0.413189 0.816240
vt 0.413189 0.816240
vt 0.413189 0.816240
vt 0.413189 0.816240
vt 0.568209 0.655020
vt 0.568209 0.655020
vt 0.568209 0.655020
vt 0.568209 0.655020
vt 0.413189 0.816240
vt 0.413189 0.816240
vt 0.413189 0.816240
vt 0.413189 0.816240
vt 0.413189 0.816240
vt 0.413189 0.816240
vt 0.413189 0.816240
vt 0.413189 0.816240
vt 0.413189 0.816240
vt 0.413189 0.816240
vt 0.413189 0.816240
vt 0.413189 0.816240
vt 0.413189 0.816240
vt 0.413189 0.816240
vt 0.413189 0.816240
vt 0.413189 0.816240
vt 0.413189 0.816240
vt 0.413189 0.816240
vt 0.413189 0.816240
vt 0.413189 0.816240
vt 0.413189 0.816240
vt 0.413189 0.816240
vt 0.413189 0.816240
vt 0.413189 0.816240
vt 0.413189 0.816240
vt 0.413189 0.816240
vt 0.717027 0.465620
vt 0.717027 0.465620
vt 0.717027 0.465620
vt 0.717027 0.465620
vt 0.717027 0.465620
vt 0.717027 0.465620
vt 0.717027 0.465620
vt 0.717027 0.465620
vt 0.717027 0.465620
vt 0.717027 0.465620
vt 0.717027 0.465620
vt 0.717027 0.465620
vt 0.717027 0.465620
vt 0.717027 0.465620
vt 0.717027 0.465620
vt 0.717027 0.465620
vt 0.717027 0.465620
vt 0.717027 0.465620
vt 0.717027 0.465620
vt 0.717027 0.465620
vt 0.717027 0.465620
vt 0.717027 0.465620
vt 0.717027 0.465620
vt 0.717027 0.465620
vt 0.717027 0.465620
vt 0.717027 0.465620
vt 0.717027 0.465620
vt 0.717027 0.465620
vt 0.717027 0.465620
vt 0.717027 0.465620
vt 0.717027 0.465620
vt 0.717027 0.465620
vt 0.717027 0.465620
vt 0.717027 0.465620
vt 0.717027 0.465620
vt 0.717027 0.465620
vt 0.717027 0.465620
vt 0.717027 0.465620
vt 0.717027 0.465620
vt 0.717027 0.465620
vt 0.717027 0.465620
vt 0.717027 0.465620
vn -0.9487 0.0000 -0.3160
vn 0.0000 0.0000 -1.0000
vn 1.0000 0.0000 0.0000
vn 0.0000 0.0000 1.0000
vn 0.0000 -0.5327 0.8463
vn 0.0000 0.8612 0.5082
vn 0.5815 0.7361 -0.3466
vn 0.5298 0.0000 -0.8481
vn 0.6539 -0.7152 0.2467
vn 0.5298 0.0000 0.8481
vn 0.6539 -0.7152 -0.2467
vn -0.0244 -0.9340 0.3564
vn 0.5815 0.7361 0.3466
vn 0.0000 0.8612 -0.5082
vn 0.0000 -0.5327 -0.8463
vn -0.9487 0.0000 0.3160
vn -0.5370 -0.7687 0.3475
vn -0.0071 0.9358 -0.3525
vn -0.0372 0.9329 -0.3583
vn -0.0372 0.9329 0.3583
vn -0.0244 -0.9340 -0.3564
vn 0.5280 0.7700 0.3583
vn -0.7470 -0.5796 -0.3257
vn -0.2133 0.0663 0.9747
vn -0.5370 -0.7687 -0.3475
vn -0.0071 0.9358 0.3525
vn -0.2133 0.0663 -0.9747
vn -0.1260 0.1730 0.9768
vn -0.9596 0.1365 0.2462
vn -0.1457 0.0743 -0.9865
vn 0.5280 0.7700 -0.3583
vn -0.7470 -0.5796 0.3257
vn -0.1457 0.0743 0.9865
vn 0.1693 0.9856 -0.0000
vn -0.9596 0.1365 -0.2462
vn 0.9487 0.1046 0.2983
vn -0.1260 0.1730 -0.9768
vn 0.9487 0.1046 -0.2983
vn 0.9487 0.0000 -0.3160
vn -1.0000 0.0000 0.0000
vn -0.5815 0.7361 -0.3466
vn -0.5298 0.0000 -0.8481
vn -0.6539 -0.7152 0.2467
vn -0.5298 0.0000 0.8481
vn -0.6539 -0.7152 -0.2467
vn 0.0244 -0.9340 0.3564
vn -0.5815 0.7361 0.3465
vn 0.9487 0.0000 0.3160
vn 0.5370 -0.7687 0.3475
vn 0.0071 0.9358 -0.3525
vn 0.0372 0.9329 -0.3583
vn 0.0372 0.9329 0.3583
vn 0.0244 -0.9340 -0.3564
vn -0.5280 0.7700 0.3583
vn 0.7470 -0.5796 -0.3257
vn 0.2133 0.0663 0.9747
vn 0.5370 -0.7687 -0.3475
vn 0.0071 0.9358 0.3525
vn 0.2133 0.0663 -0.9747
vn 0.1260 0.1730 0.9768
vn 0.9596 0.1365 0.2462
vn 0.1457 0.0743 -0.9865
vn -0.5280 0.7700 -0.3583
vn 0.7470 -0.5796 0.3257
vn 0.1457 0.0743 0.9865
vn -0.1693 0.9856 -0.0000
vn 0.9596 0.1365 -0.2462
vn -0.9487 0.1046 0.2983
vn 0.1260 0.1730 -0.9768
vn -0.9487 0.1046 -0.2983
vn 0.1024 -0.9435 0.3151
vn 0.7002 -0.6617 0.2680
vn -0.2680 -0.9435 0.1947
vn -0.2680 -0.9435 -0.1947
vn 0.1024 -0.9435 -0.3151
vn 0.9050 -0.3304 0.2680
vn 0.0247 -0.3304 0.9435
vn -0.8897 -0.3304 0.3151
vn -0.5746 -0.3304 -0.7488
vn 0.5346 -0.3304 -0.7779
vn 0.8026 -0.1256 0.5831
vn -0.3066 -0.1256 0.9435
vn -0.9921 -0.1256 0.0000
vn -0.3066 -0.1256 -0.9435
vn 0.8026 -0.1256 -0.5831
vn 0.4089 0.6617 0.6284
vn -0.4713 0.6617 0.5831
vn -0.7002 0.6617 -0.2680
vn 0.0385 0.6617 -0.7488
vn 0.7240 0.6617 -0.1947
vn 0.2680 0.9435 -0.1947
vn 0.4911 0.7947 -0.3568
vn 0.4089 0.6617 -0.6284
vn -0.1024 0.9435 -0.3151
vn -0.1876 0.7947 -0.5773
vn -0.4713 0.6617 -0.5831
vn -0.3313 0.9435 0.0000
vn -0.6071 0.7947 0.0000
vn -0.7002 0.6617 0.2680
vn -0.1024 0.9435 0.3151
vn -0.1876 0.7947 0.5773
vn 0.0385 0.6617 0.7488
vn 0.2680 0.9435 0.1947
vn 0.4911 0.7947 0.3568
vn 0.7240 0.6617 0.1947
vn 0.8897 0.3304 -0.3151
vn 0.7947 0.1876 -0.5773
vn 0.5746 0.3304 -0.7488
vn -0.0247 0.3304 -0.9435
vn -0.3035 0.1876 -0.9342
vn -0.5346 0.3304 -0.7779
vn -0.9050 0.3304 -0.2680
vn -0.9822 0.1876 0.0000
vn -0.9050 0.3304 0.2680
vn -0.5346 0.3304 0.7779
vn -0.3035 0.1876 0.9342
vn -0.0247 0.3304 0.9435
vn 0.5746 0.3304 0.7488
vn 0.7947 0.1876 0.5773
vn 0.8897 0.3304 0.3151
vn 0.3066 0.1256 -0.9435
vn 0.3035 -0.1876 -0.9342
vn 0.0247 -0.3304 -0.9435
vn -0.8026 0.1256 -0.5831
vn -0.7947 -0.1876 -0.5773
vn -0.8897 -0.3304 -0.3151
vn -0.8026 0.1256 0.5831
vn -0.7947 -0.1876 0.5773
vn -0.5746 -0.3304 0.7488
vn 0.3066 0.1256 0.9435
vn 0.3035 -0.1876 0.9342
vn 0.5346 -0.3304 0.7779
vn 0.9921 0.1256 0.0000
vn 0.9822 -0.1876 0.0000
vn 0.9050 -0.3304 -0.2680
vn 0.4713 -0.6617 -0.5831
vn 0.1876 -0.7947 -0.5773
vn -0.0385 -0.6617 -0.7488
vn -0.4089 -0.6617 -0.6284
vn -0.4911 -0.7947 -0.3568
vn -0.7240 -0.6617 -0.1947
vn -0.7240 -0.6617 0.1947
vn -0.4911 -0.7947 0.3568
vn -0.4089 -0.6617 0.6284
vn 0.7002 -0.6617 -0.2680
vn 0.6071 -0.7947 0.0000
vn 0.3313 -0.9435 0.0000
vn -0.0385 -0.6617 0.7488
vn 0.1876 -0.7947 0.5773
vn 0.4713 -0.6617 0.5831
usemtl Colors
s off
f 10/1/1 11/2/1 2/3/1 1/4/1
f 1/4/2 2/3/2 42/5/2 4/6/2
f 12/7/3 13/8/3 3/9/3 41/10/3
f 41/10/4 3/9/4 44/11/4 43/12/4
f 10/1/5 12/7/5 41/10/5 43/12/5
f 13/8/3 42/5/3 46/13/3 14/14/3
f 14/14/6 56/15/6 47/16/6 45/17/6
f 56/15/7 5/18/7 9/19/7 16/20/7
f 44/11/4 3/9/4 45/17/4 47/16/4
f 42/5/2 2/3/2 5/18/2 46/13/2
f 9/21/2 7/22/2 18/23/2 20/24/2
f 5/18/8 2/3/8 7/25/8 9/19/8
f 11/2/9 44/11/9 6/26/9 15/27/9
f 44/11/10 47/16/10 8/28/10 6/26/10
f 2/3/11 11/2/11 15/27/11 7/25/11
f 15/29/12 6/30/12 21/31/12 17/32/12
f 47/16/13 56/15/13 16/20/13 8/28/13
f 46/13/14 5/18/14 56/15/14 14/14/14
f 3/9/3 13/8/3 14/14/3 45/17/3
f 1/4/15 4/6/15 12/7/15 10/1/15
f 4/6/3 42/5/3 13/8/3 12/7/3
f 43/12/16 44/11/16 11/2/16 10/1/16
f 17/32/17 21/31/17 27/33/17 23/34/17
f 19/35/18 20/24/18 26/36/18 25/37/18
f 16/38/19 9/21/19 20/24/19 19/35/19
f 8/39/20 16/38/20 19/35/20 22/40/20
f 6/30/4 8/39/4 22/40/4 21/31/4
f 7/22/21 15/29/21 17/32/21 18/23/21
f 28/41/22 25/37/22 31/42/22 34/43/22
f 24/44/23 23/34/23 29/45/23 30/46/23
f 21/31/24 22/40/24 28/41/24 27/33/24
f 18/23/25 17/32/25 23/34/25 24/44/25
f 22/40/26 19/35/26 25/37/26 28/41/26
f 20/24/27 18/23/27 24/44/27 26/36/27
f 33/47/28 34/43/28 40/48/28 39/49/28
f 29/45/29 33/47/29 39/49/29 35/50/29
f 26/36/30 24/44/30 30/46/30 32/51/30
f 25/37/31 26/36/31 32/51/31 31/42/31
f 23/34/32 27/33/32 33/47/32 29/45/32
f 27/33/33 28/41/33 34/43/33 33/47/33
f 35/50/34 39/49/34 40/48/34 37/52/34
f 36/53/34 35/50/34 37/52/34 38/54/34
f 30/46/35 29/45/35 35/50/35 36/53/35
f 34/43/36 31/42/36 37/52/36 40/48/36
f 32/51/37 30/46/37 36/53/37 38/54/37
f 31/42/38 32/51/38 38/54/38 37/52/38
f 52/55/39 4/6/39 42/5/39 53/56/39
f 54/57/40 43/12/40 44/11/40 55/58/40
f 52/55/5 41/10/5 43/12/5 54/57/5
f 55/58/40 56/15/40 5/18/40 2/3/40
f 14/14/41 58/59/41 51/60/41 46/13/41
f 51/61/2 62/62/2 60/63/2 49/64/2
f 46/13/42 51/60/42 49/65/42 42/5/42
f 53/56/43 57/66/43 48/67/43 3/9/43
f 3/9/44 48/67/44 50/68/44 45/17/44
f 42/5/45 49/65/45 57/66/45 53/56/45
f 57/69/46 59/70/46 63/71/46 48/72/46
f 45/17/47 50/68/47 58/59/47 14/14/47
f 44/11/40 47/16/40 56/15/40 55/58/40
f 4/6/15 52/55/15 54/57/15 1/4/15
f 1/4/40 54/57/40 55/58/40 2/3/40
f 41/10/48 52/55/48 53/56/48 3/9/48
f 59/70/49 65/73/49 69/74/49 63/71/49
f 61/75/50 67/76/50 68/77/50 62/62/50
f 58/78/51 61/75/51 62/62/51 51/61/51
f 50/79/52 64/80/52 61/75/52 58/78/52
f 48/72/4 63/71/4 64/80/4 50/79/4
f 49/64/53 60/63/53 59/70/53 57/69/53
f 70/81/54 76/82/54 73/83/54 67/76/54
f 66/84/55 72/85/55 71/86/55 65/73/55
f 63/71/56 69/74/56 70/81/56 64/80/56
f 60/63/57 66/84/57 65/73/57 59/70/57
f 64/80/58 70/81/58 67/76/58 61/75/58
f 62/62/59 68/77/59 66/84/59 60/63/59
f 75/87/60 81/88/60 82/89/60 76/82/60
f 71/86/61 77/90/61 81/88/61 75/87/61
f 68/77/62 74/91/62 72/85/62 66/84/62
f 67/76/63 73/83/63 74/91/63 68/77/63
f 65/73/64 71/86/64 75/87/64 69/74/64
f 69/74/65 75/87/65 76/82/65 70/81/65
f 77/90/66 79/92/66 82/89/66 81/88/66
f 78/93/66 80/94/66 79/92/66 77/90/66
f 72/85/67 78/93/67 77/90/67 71/86/67
f 76/82/68 82/89/68 79/92/68 73/83/68
f 74/91/69 80/94/69 78/93/69 72/85/69
f 73/83/70 79/92/70 80/94/70 74/91/70
f 83/95/71 96/96/71 95/97/71
f 84/98/72 96/96/72 98/99/72
f 83/95/73 95/97/73 100/100/73
f 83/95/74 100/100/74 102/101/74
f 83/95/75 102/101/75 99/102/75
f 84/98/76 98/99/76 105/103/76
f 85/104/77 97/105/77 107/106/77
f 86/107/78 101/108/78 109/109/78
f 87/110/79 103/111/79 111/112/79
f 88/113/80 104/114/80 113/115/80
f 84/98/81 105/103/81 108/116/81
f 85/104/82 107/106/82 110/117/82
f 86/107/83 109/109/83 112/118/83
f 87/110/84 111/112/84 114/119/84
f 88/113/85 113/115/85 106/120/85
f 89/121/86 115/122/86 120/123/86
f 90/124/87 116/125/87 122/126/87
f 91/127/88 117/128/88 123/129/88
f 92/130/89 118/131/89 124/132/89
f 93/133/90 119/134/90 121/135/90
f 121/135/91 124/132/91 94/136/91
f 121/135/92 119/134/92 124/132/92
f 119/134/93 92/130/93 124/132/93
f 124/132/94 123/129/94 94/136/94
f 124/132/95 118/131/95 123/129/95
f 118/131/96 91/127/96 123/129/96
f 123/129/97 122/126/97 94/136/97
f 123/129/98 117/128/98 122/126/98
f 117/128/99 90/124/99 122/126/99
f 122/126/100 120/123/100 94/136/100
f 122/126/101 116/125/101 120/123/101
f 116/125/102 89/121/102 120/123/102
f 120/123/103 121/135/103 94/136/103
f 120/123/104 115/122/104 121/135/104
f 115/122/105 93/133/105 121/135/105
f 106/120/106 119/134/106 93/133/106
f 106/120/107 113/115/107 119/134/107
f 113/115/108 92/130/108 119/134/108
f 114/119/109 118/131/109 92/130/109
f 114/119/110 111/112/110 118/131/110
f 111/112/111 91/127/111 118/131/111
f 112/118/112 117/128/112 91/127/112
f 112/118/113 109/109/113 117/128/113
f 109/109/114 90/124/114 117/128/114
f 110/117/115 116/125/115 90/124/115
f 110/117/116 107/106/116 116/125/116
f 107/106/117 89/121/117 116/125/117
f 108/116/118 115/122/118 89/121/118
f 108/116/119 105/103/119 115/122/119
f 105/103/120 93/133/120 115/122/120
f 113/115/121 114/119/121 92/130/121
f 113/115/122 104/114/122 114/119/122
f 104/114/123 87/110/123 114/119/123
f 111/112/124 112/118/124 91/127/124
f 111/112/125 103/111/125 112/118/125
f 103/111/126 86/107/126 112/118/126
f 109/109/127 110/117/127 90/124/127
f 109/109/128 101/108/128 110/117/128
f 101/108/129 85/104/129 110/117/129
f 107/106/130 108/116/130 89/121/130
f 107/106/131 97/105/131 108/116/131
f 97/105/132 84/98/132 108/116/132
f 105/103/133 106/120/133 93/133/133
f 105/103/134 98/99/134 106/120/134
f 98/99/135 88/113/135 106/120/135
f 99/102/136 104/114/136 88/113/136
f 99/102/137 102/101/137 104/114/137
f 102/101/138 87/110/138 104/114/138
f 102/101/139 103/111/139 87/110/139
f 102/101/140 100/100/140 103/111/140
f 100/100/141 86/107/141 103/111/141
f 100/100/142 101/108/142 86/107/142
f 100/100/143 95/97/143 101/108/143
f 95/97/144 85/104/144 101/108/144
f 98/99/145 99/102/145 88/113/145
f 98/99/146 96/96/146 99/102/146
f 96/96/147 83/95/147 99/102/147
f 95/97/148 97/105/148 85/104/148
f 95/97/149 96/96/149 97/105/149
f 96/96/150 84/98/150 97/105/150
