# Blender v2.82 (sub 7) OBJ File: 'LD47Models.blend'
# www.blender.org
mtllib Urn.mtl
o Cylinder_Cylinder.010
v 0.000000 -0.500000 -0.500000
v 0.000000 0.500000 -0.837419
v 0.433013 -0.500000 -0.250000
v 0.725226 0.500000 -0.418709
v 0.433013 -0.500000 0.250000
v 0.725226 0.500000 0.418709
v -0.000000 -0.500000 0.500000
v -0.000000 0.500000 0.837419
v -0.433013 -0.500000 0.250000
v -0.725226 0.500000 0.418709
v -0.433013 -0.500000 -0.250000
v -0.725226 0.500000 -0.418709
v 0.725226 0.972490 -0.418709
v 0.000000 0.972490 -0.837419
v 0.725226 0.972490 0.418709
v -0.000000 0.972490 0.837419
v -0.725226 0.972490 0.418709
v -0.725226 0.972490 -0.418709
v 0.376167 1.466116 -0.217180
v -0.000000 1.466116 -0.434361
v 0.376167 1.466116 0.217180
v -0.000000 1.466116 0.434361
v -0.376168 1.466116 0.217180
v -0.376168 1.466116 -0.217180
v 0.376167 1.708642 -0.217180
v -0.000000 1.708642 -0.434361
v 0.376167 1.708642 0.217180
v -0.000000 1.708642 0.434361
v -0.376168 1.708642 0.217180
v -0.376168 1.708642 -0.217180
v 0.572520 1.857484 -0.330545
v -0.000000 1.857484 -0.661089
v 0.572520 1.857484 0.330545
v -0.000000 1.857484 0.661089
v -0.572520 1.857484 0.330544
v -0.572520 1.857484 -0.330544
v 0.329807 1.956349 -0.190414
v -0.000000 1.956349 -0.380828
v 0.329807 1.956349 0.190414
v -0.000000 1.956349 0.380828
v -0.329807 1.956349 0.190414
v -0.329807 1.956349 -0.190414
v 0.517499 1.956349 -0.298778
v -0.000000 1.956349 -0.597556
v 0.517499 1.956349 0.298778
v -0.000000 1.956349 0.597556
v -0.517499 1.956349 0.298778
v -0.517499 1.956349 -0.298778
v 0.329807 0.502793 -0.190414
v 0.000000 0.502793 -0.380828
v 0.329807 0.502793 0.190414
v 0.000000 0.502793 0.380828
v -0.329807 0.502793 0.190414
v -0.329807 0.502793 -0.190414
vt 0.539372 0.938098
vt 0.539372 0.938098
vt 0.539372 0.938098
vt 0.539372 0.938098
vt 0.539372 0.938098
vt 0.539372 0.938098
vt 0.539372 0.938098
vt 0.539372 0.938098
vt 0.539372 0.938098
vt 0.539372 0.938098
vt 0.539372 0.938098
vt 0.539372 0.938098
vt 0.539372 0.938098
vt 0.539372 0.938098
vt 0.539372 0.938098
vt 0.539372 0.938098
vt 0.539372 0.938098
vt 0.539372 0.938098
vt 0.539372 0.938098
vt 0.539372 0.938098
vt 0.539372 0.938098
vt 0.539372 0.938098
vt 0.539372 0.938098
vt 0.539372 0.938098
vt 0.539372 0.938098
vt 0.539372 0.938098
vt 0.539372 0.938098
vt 0.539372 0.938098
vt 0.539372 0.938098
vt 0.539372 0.938098
vt 0.539372 0.938098
vt 0.539372 0.938098
vt 0.539372 0.938098
vt 0.539372 0.938098
vt 0.539372 0.938098
vt 0.539372 0.938098
vt 0.539372 0.938098
vt 0.539372 0.938098
vt 0.539372 0.938098
vt 0.539372 0.938098
vt 0.539372 0.938098
vt 0.539372 0.938098
vt 0.539372 0.938098
vt 0.539372 0.938098
vt 0.539372 0.938098
vt 0.539372 0.938098
vt 0.539372 0.938098
vt 0.539372 0.938098
vt 0.833333 1.000000
vt 1.000000 1.000000
vt 1.000000 1.000000
vt 0.833333 1.000000
vt 0.500000 1.000000
vt 0.666667 1.000000
vt 0.666667 1.000000
vt 0.500000 1.000000
vt -0.000000 1.000000
vt 0.166667 1.000000
vt 0.166667 1.000000
vt -0.000000 1.000000
vt 0.333333 1.000000
vt 0.333333 1.000000
vt 0.166667 1.000000
vt 0.333333 1.000000
vt 0.333333 1.000000
vt 0.166667 1.000000
vt 0.500000 1.000000
vt 0.666667 1.000000
vt 0.666667 1.000000
vt 0.500000 1.000000
vt 0.833333 1.000000
vt 1.000000 1.000000
vt 1.000000 1.000000
vt 0.833333 1.000000
vt -0.000000 1.000000
vt -0.000000 1.000000
vt 0.382462 0.326477
vt 0.250000 0.402954
vt 0.250000 0.402954
vt 0.382462 0.326477
vt 0.117538 0.326477
vt 0.117538 0.173523
vt 0.250000 0.097046
vt 0.382462 0.173523
vt 0.117538 0.326477
vt 0.117538 0.173523
vt 0.250000 0.097046
vt 0.382462 0.173523
vn 0.4799 -0.2805 -0.8313
vn 0.9599 -0.2805 0.0000
vn 0.4799 -0.2805 0.8313
vn -0.4799 -0.2805 0.8313
vn -0.9599 -0.2805 0.0000
vn -0.4799 -0.2805 -0.8313
vn 0.0000 -1.0000 0.0000
vn -0.4082 0.5774 -0.7071
vn -0.4082 0.5774 0.7071
vn 0.8165 0.5774 0.0000
vn -0.8165 0.5774 0.0000
vn 0.4082 0.5774 0.7071
vn 0.4082 0.5774 -0.7071
vn -0.3020 -0.7969 0.5232
vn 0.4369 0.4863 0.7567
vn 0.6041 -0.7969 -0.0000
vn -0.6041 -0.7969 0.0000
vn 0.3020 -0.7969 0.5232
vn 0.3020 -0.7969 -0.5232
vn -0.3020 -0.7969 -0.5232
vn 0.4369 0.4863 -0.7567
vn -0.4369 0.4863 -0.7567
vn -0.4369 0.4863 0.7567
vn 0.8738 0.4863 0.0000
vn -0.8738 0.4863 0.0000
vn 0.0000 1.0000 -0.0000
vn 0.5000 0.0000 -0.8660
vn 0.5000 0.0000 0.8660
vn -0.5000 0.0000 -0.8660
vn -0.5000 0.0000 0.8660
vn 1.0000 0.0000 0.0000
vn -1.0000 0.0000 0.0000
usemtl Colors
s off
f 1/1/1 2/2/1 4/3/1 3/4/1
f 3/4/2 4/3/2 6/5/2 5/6/2
f 5/6/3 6/5/3 8/7/3 7/8/3
f 7/8/4 8/7/4 10/9/4 9/10/4
f 9/10/5 10/9/5 12/11/5 11/12/5
f 11/12/6 12/11/6 2/2/6 1/1/6
f 1/1/7 3/4/7 5/6/7 7/8/7 9/10/7 11/12/7
f 14/13/8 18/14/8 24/15/8 20/16/8
f 17/17/9 16/18/9 22/19/9 23/20/9
f 15/21/10 13/22/10 19/23/10 21/24/10
f 18/14/11 17/17/11 23/20/11 24/15/11
f 16/18/12 15/21/12 21/24/12 22/19/12
f 13/22/13 14/13/13 20/16/13 19/23/13
f 29/25/14 28/26/14 34/27/14 35/28/14
f 34/27/15 33/29/15 45/30/15 46/31/15
f 27/32/16 25/33/16 31/34/16 33/29/16
f 30/35/17 29/25/17 35/28/17 36/36/17
f 28/26/18 27/32/18 33/29/18 34/27/18
f 25/33/19 26/37/19 32/38/19 31/34/19
f 26/37/20 30/35/20 36/36/20 32/38/20
f 31/34/21 32/38/21 44/39/21 43/40/21
f 32/38/22 36/36/22 48/41/22 44/39/22
f 35/28/23 34/27/23 46/31/23 47/42/23
f 33/29/24 31/34/24 43/40/24 45/30/24
f 36/36/25 35/28/25 47/42/25 48/41/25
f 38/43/26 37/44/26 43/40/26 44/39/26
f 37/44/26 39/45/26 45/30/26 43/40/26
f 39/45/26 40/46/26 46/31/26 45/30/26
f 40/46/26 41/47/26 47/42/26 46/31/26
f 41/47/26 42/48/26 48/41/26 47/42/26
f 42/48/26 38/43/26 44/39/26 48/41/26
usemtl Active
f 4/49/27 2/50/27 14/51/27 13/52/27
f 8/53/28 6/54/28 15/55/28 16/56/28
f 2/57/29 12/58/29 18/59/29 14/60/29
f 10/61/30 8/53/30 16/56/30 17/62/30
f 6/54/31 4/49/31 13/52/31 15/55/31
f 12/58/32 10/61/32 17/62/32 18/59/32
f 24/63/32 23/64/32 29/65/32 30/66/32
f 22/67/28 21/68/28 27/69/28 28/70/28
f 19/71/27 20/72/27 26/73/27 25/74/27
f 20/75/29 24/63/29 30/66/29 26/76/29
f 23/64/30 22/67/30 28/70/30 29/65/30
f 21/68/31 19/71/31 25/74/31 27/69/31
f 37/77/30 38/78/30 50/79/30 49/80/30
f 49/80/26 50/79/26 54/81/26 53/82/26 52/83/26 51/84/26
f 38/78/28 42/85/28 54/81/28 50/79/28
f 41/86/27 40/87/27 52/83/27 53/82/27
f 39/88/32 37/77/32 49/80/32 51/84/32
f 42/85/31 41/86/31 53/82/31 54/81/31
f 40/87/29 39/88/29 51/84/29 52/83/29
